<?xml version="1.0" encoding="UTF-8" standalone="no"?>
<!-- Created with Inkscape (http://www.inkscape.org/) -->

<svg
   width="800"
   height="800"
   viewBox="0 0 211.66666 211.66667"
   version="1.1"
   id="svg5"
   xml:space="preserve"
   inkscape:version="1.2.2 (732a01da63, 2022-12-09, custom)"
   sodipodi:docname="logo_text_as_path.svg"
   xmlns:inkscape="http://www.inkscape.org/namespaces/inkscape"
   xmlns:sodipodi="http://sodipodi.sourceforge.net/DTD/sodipodi-0.dtd"
   xmlns="http://www.w3.org/2000/svg"
   xmlns:svg="http://www.w3.org/2000/svg"><sodipodi:namedview
     id="namedview7"
     pagecolor="#ffffff"
     bordercolor="#666666"
     borderopacity="1.0"
     inkscape:showpageshadow="2"
     inkscape:pageopacity="0.0"
     inkscape:pagecheckerboard="0"
     inkscape:deskcolor="#d1d1d1"
     inkscape:document-units="px"
     showgrid="false"
     inkscape:zoom="0.66331438"
     inkscape:cx="501.2706"
     inkscape:cy="453.02802"
     inkscape:window-width="1790"
     inkscape:window-height="1230"
     inkscape:window-x="571"
     inkscape:window-y="47"
     inkscape:window-maximized="0"
     inkscape:current-layer="g1737" /><defs
     id="defs2" /><g
     inkscape:label="Layer 1"
     inkscape:groupmode="layer"
     id="layer1"><rect
       style="fill:#fffffd;stroke-width:0.241601;stroke-linecap:round;stroke-linejoin:round;stop-color:#000000"
       id="rect2932"
       width="143.14316"
       height="142.12859"
       x="33.375114"
       y="35.244007" /><g
       id="g2504"
       transform="matrix(1.1022511,0,0,1.1022511,-57.28313,24.170519)"
       style="fill:#ea7819;fill-opacity:1"><path
         style="fill:#ea7819;fill-opacity:1;stroke-width:0.352778"
         d="m 64.759633,156.99621 -0.855244,-0.97014 0.970139,0.85524 c 0.533576,0.47039 0.970139,0.90695 0.970139,0.97014 0,0.27667 -0.285679,0.0515 -1.085034,-0.85524 z m 166.185027,0.0882 c 0.45571,-0.48507 0.90792,-0.88194 1.00494,-0.88194 0.097,0 -0.19646,0.39687 -0.65216,0.88194 -0.4557,0.48507 -0.90792,0.88194 -1.00493,0.88194 -0.097,0 0.19645,-0.39687 0.65215,-0.88194 z m -81.07327,-21.25416 c 3.23754,-0.0582 8.63504,-0.0583 11.99444,-2.3e-4 3.3594,0.058 0.7105,0.10562 -5.88644,0.10575 -6.59695,1.3e-4 -9.34555,-0.0474 -6.108,-0.10552 z m -6.03498,-2.76413 c 0.0169,-0.41096 0.10052,-0.49456 0.21313,-0.21313 0.10191,0.25466 0.0894,0.55893 -0.0278,0.67615 -0.11723,0.11723 -0.20061,-0.0911 -0.18529,-0.46302 z m 42.0084,-0.49977 c 0,-0.48507 0.0801,-0.6835 0.17794,-0.44097 0.0979,0.24254 0.0979,0.63941 0,0.88195 -0.0979,0.24253 -0.17794,0.0441 -0.17794,-0.44098 z m -18.37229,-1.61689 c 0.0169,-0.41097 0.10052,-0.49456 0.21313,-0.21314 0.10191,0.25466 0.0894,0.55893 -0.0278,0.67616 -0.11723,0.11722 -0.20061,-0.0911 -0.18529,-0.46302 z m 42.0084,-1.20533 c 0,-0.48507 0.0801,-0.6835 0.17794,-0.44097 0.0979,0.24253 0.0979,0.63941 0,0.88194 -0.0979,0.24254 -0.17794,0.0441 -0.17794,-0.44097 z M 156.46355,64.921206 c -0.43881,-0.559526 -0.42633,-0.572004 0.1332,-0.133194 0.58764,0.460858 0.77452,0.750555 0.48417,0.750555 -0.0733,0 -0.35107,-0.277812 -0.61737,-0.617361 z m 16.62556,-16.845138 c -0.85691,-0.873125 -1.47864,-1.5875 -1.38163,-1.5875 0.097,0 0.8775,0.714375 1.73441,1.5875 0.85691,0.873125 1.47864,1.5875 1.38162,1.5875 -0.097,0 -0.87749,-0.714375 -1.7344,-1.5875 z M 88.687028,12.020157 c 0.436562,-0.08409 1.150937,-0.08409 1.5875,0 0.436562,0.08408 0.07937,0.152883 -0.79375,0.152883 -0.873125,0 -1.230313,-0.0688 -0.79375,-0.152883 z M 64.786333,-9.0739316 c 0.455699,-0.4850695 0.907919,-0.8819445 1.004933,-0.8819445 0.09701,0 -0.196456,0.396875 -0.652155,0.8819445 -0.455699,0.4850694 -0.907919,0.8819444 -1.004932,0.8819444 -0.09701,0 0.196456,-0.396875 0.652154,-0.8819444 z m 166.131627,-0.088195 -0.85524,-0.9701394 0.97014,0.8552446 c 0.53358,0.4703844 0.97014,0.9069469 0.97014,0.9701389 0,0.2766744 -0.28568,0.051497 -1.08504,-0.8552441 z"
         id="path2512" /><path
         style="fill:#ea7819;fill-opacity:1;stroke-width:0.352778"
         d="m 143.8904,134.68301 c 0,-0.6791 0.0726,-0.95691 0.16134,-0.61736 0.0887,0.33955 0.0887,0.89517 0,1.23472 -0.0887,0.33955 -0.16134,0.0617 -0.16134,-0.61736 z m 41.98767,-0.17639 c 0.004,-0.77611 0.0762,-1.05207 0.16055,-0.61325 0.0844,0.43883 0.0812,1.07383 -0.007,1.41112 -0.0883,0.33728 -0.15734,-0.0218 -0.15342,-0.79787 z m -95.012882,-3.61597 -0.855244,-0.97014 0.970139,0.85524 c 0.906741,0.79936 1.131919,1.08504 0.855244,1.08504 -0.06319,0 -0.499754,-0.43656 -0.970139,-0.97014 z m 23.283332,-23.28333 -0.85524,-0.97014 0.97014,0.85524 c 0.90674,0.79936 1.13192,1.08504 0.85524,1.08504 -0.0632,0 -0.49975,-0.43657 -0.97014,-0.97014 z M 89.76741,77.997581 c 0.254661,-0.101907 0.558932,-0.08938 0.676157,0.02783 0.117225,0.117225 -0.09113,0.200604 -0.463021,0.185286 -0.410966,-0.01693 -0.494559,-0.10052 -0.213136,-0.213134 z m 85.58124,-27.716652 -0.67204,-0.79375 0.79375,0.672038 c 0.74593,0.63155 0.95435,0.915462 0.67204,0.915462 -0.067,0 -0.42413,-0.357188 -0.79375,-0.79375 z m -4.58611,-4.586111 -0.67204,-0.79375 0.79375,0.672038 c 0.43656,0.369619 0.79375,0.726807 0.79375,0.79375 0,0.28231 -0.28391,0.07389 -0.91546,-0.672038 z M 93.295187,36.017026 c 0.25466,-0.101907 0.558931,-0.08938 0.676159,0.02783 0.117224,0.117225 -0.09114,0.200604 -0.463021,0.185286 -0.410968,-0.01693 -0.494559,-0.10052 -0.213138,-0.213134 z m -2.138715,-23.98154 c 0.242535,-0.09787 0.63941,-0.09787 0.881944,0 0.242535,0.09786 0.0441,0.177936 -0.440972,0.177936 -0.485069,0 -0.683507,-0.08007 -0.440972,-0.177936 z"
         id="path2510" /><path
         style="fill:#ea7819;fill-opacity:1;stroke-width:0.352778"
         d="m 102.0967,135.84462 c 0.43882,-0.0844 1.07382,-0.0812 1.41111,0.007 0.33728,0.0883 -0.0218,0.15734 -0.79787,0.15343 -0.77611,-0.004 -1.05207,-0.0762 -0.61324,-0.16055 z m 107.35637,-8.07017 c 0.0169,-0.41097 0.10052,-0.49456 0.21314,-0.21314 0.1019,0.25466 0.0894,0.55893 -0.0278,0.67616 -0.11722,0.11722 -0.2006,-0.0911 -0.18528,-0.46302 z m -90.25,-8.43727 c 0.004,-0.77611 0.0762,-1.05207 0.16055,-0.61325 0.0844,0.43882 0.0812,1.07382 -0.007,1.41111 -0.0883,0.33729 -0.15734,-0.0218 -0.15342,-0.79786 z M 90.891889,107.69551 c 0.455699,-0.48507 0.907918,-0.88194 1.004932,-0.88194 0.09701,0 -0.196456,0.39687 -0.652155,0.88194 -0.455698,0.48507 -0.907918,0.88195 -1.004932,0.88195 -0.09701,0 0.196456,-0.39688 0.652155,-0.88195 z m 37.184541,-11.553471 -0.67204,-0.79375 0.79375,0.672038 c 0.74593,0.63155 0.95435,0.915462 0.67204,0.915462 -0.0669,0 -0.42413,-0.357187 -0.79375,-0.79375 z m -2.82223,-2.822222 -0.67203,-0.79375 0.79375,0.672038 c 0.74592,0.63155 0.95434,0.915462 0.67203,0.915462 -0.0669,0 -0.42413,-0.357187 -0.79375,-0.79375 z m 18.52765,-15.345833 -0.85524,-0.970139 0.97014,0.855243 c 0.90674,0.799355 1.13192,1.085035 0.85524,1.085035 -0.0632,0 -0.49975,-0.436563 -0.97014,-0.970139 z m -55.4476,0.03095 c 0.242535,-0.09786 0.63941,-0.09786 0.881944,0 0.242535,0.09786 0.0441,0.177937 -0.440972,0.177937 -0.485069,0 -0.683507,-0.08007 -0.440972,-0.177937 z m 71.3043,-9.555946 c -0.43881,-0.559527 -0.42633,-0.572004 0.1332,-0.133195 0.58764,0.460859 0.77452,0.750556 0.48417,0.750556 -0.0733,0 -0.35107,-0.277812 -0.61737,-0.617361 z M 86.923139,54.000713 c 0.436562,-0.08409 1.150937,-0.08409 1.5875,0 0.436562,0.08408 0.07937,0.152883 -0.79375,0.152883 -0.873125,0 -1.230313,-0.0688 -0.79375,-0.152883 z m 89.836621,-2.308673 -0.67204,-0.79375 0.79375,0.672038 c 0.43656,0.369619 0.79375,0.726807 0.79375,0.79375 0,0.28231 -0.28391,0.07389 -0.91546,-0.672038 z m -7.24343,-7.231945 c -0.43881,-0.559526 -0.42633,-0.572004 0.1332,-0.133194 0.33955,0.266294 0.61736,0.544106 0.61736,0.617361 0,0.29035 -0.2897,0.103473 -0.75056,-0.484167 z M 92.236854,36.017026 c 0.254661,-0.101907 0.558932,-0.08938 0.676157,0.02783 0.117226,0.117225 -0.09113,0.200604 -0.46302,0.185286 -0.410966,-0.01693 -0.49456,-0.10052 -0.213137,-0.213134 z m 0.352778,-23.98889 c 0.254661,-0.101907 0.55893,-0.08937 0.676158,0.02785 0.117225,0.117225 -0.09114,0.200604 -0.463022,0.185286 -0.410966,-0.01693 -0.494559,-0.100521 -0.213136,-0.213136 z"
         id="path2508" /><path
         style="fill:#ea7819;fill-opacity:1;stroke-width:0.352778"
         d="m 78.935046,163.91022 c -8.956013,-1.29457 -16.936489,-7.9053 -19.745134,-16.35615 -1.476557,-4.44277 -1.492159,-5.29941 -1.374883,-75.489114 0.105355,-63.0546086 0.152518,-67.5277725 0.734606,-69.67361 2.379104,-8.7704421 9.329891,-15.657487 18.054754,-17.889184 2.331789,-0.596439 6.313972,-0.631649 71.437501,-0.631649 65.12353,0 69.10571,0.03521 71.4375,0.631649 8.81339,2.254341 15.81123,9.2521815 18.06557,18.0655729 0.59644,2.3317887 0.63165,6.3139721 0.63165,71.4374991 0,65.123526 -0.0352,69.105716 -0.63165,71.437496 -2.23169,8.72484 -9.11837,15.67529 -17.88918,18.05485 -2.14982,0.58325 -6.54614,0.62576 -70.37917,0.68039 -40.14491,0.0344 -69.011704,-0.0755 -70.341564,-0.26775 z m 26.420734,-28.1871 c 3.47408,-0.55401 6.39544,-2.07855 9.02849,-4.71161 8.84497,-8.84497 5.3383,-23.35747 -6.61948,-27.39503 -1.84415,-0.62268 -2.85204,-0.73119 -5.79253,-0.62363 -3.282702,0.12008 -3.772082,0.23509 -6.284742,1.47691 -3.57118,1.76497 -6.081868,4.27772 -7.851827,7.85827 -1.343208,2.71725 -1.353524,2.77053 -1.353524,6.9903 0,4.16099 0.02732,4.30892 1.274002,6.89801 2.563934,5.32475 6.691914,8.51527 12.307941,9.51282 2.26792,0.40284 2.73101,0.40231 5.29167,-0.006 z m 62.32977,-4.47969 C 166.53301,105.86693 152.61728,81.710599 130.93217,67.443208 118.71057,59.402189 105.3127,55.039135 89.92175,54.088046 l -3.615972,-0.223449 v 11.985212 11.985212 l 1.852083,0.176273 c 9.455778,0.899953 13.351559,1.723795 19.477449,4.118899 20.29936,7.936657 34.98597,28.288457 36.07837,49.995177 l 0.19972,3.96875 h 11.99623 11.99623 z m 41.98655,-1.05834 C 208.09352,86.483831 181.83363,45.592322 142.48672,25.565007 125.85147,17.09777 109.85391,12.852592 91.50925,12.037413 l -5.203472,-0.231226 v 11.996766 11.996766 l 4.674305,0.244969 c 36.385907,1.906894 68.117427,22.743198 84.527707,55.504604 6.21037,12.398328 10.28132,28.863618 10.28132,41.583598 v 2.96123 h 12.04822 12.04822 z"
         id="path2506" /></g><g
       id="g1737"
       transform="translate(0.79374985,0.79373765)"><text
         xml:space="preserve"
         style="font-size:156.318px;line-height:1.25;font-family:Riffic;-inkscape-font-specification:Riffic;fill:#24c0ca;fill-opacity:1;stroke:none;stroke-width:3.90799;stroke-opacity:1"
         x="18.791605"
         y="165.08995"
         id="text360"><tspan
           sodipodi:role="line"
           id="tspan358"
           style="font-style:normal;font-variant:normal;font-weight:normal;font-stretch:normal;font-family:'Air America';-inkscape-font-specification:'Air America';fill:#24c0ca;fill-opacity:1;stroke:none;stroke-width:3.90799;stroke-opacity:1"
           x="18.791605"
           y="165.08995">ZAP</tspan></text><text
         xml:space="preserve"
         style="font-size:156.318px;line-height:1.25;font-family:Riffic;-inkscape-font-specification:Riffic;fill:#245cca;fill-opacity:1;stroke:none;stroke-width:3.90799;stroke-opacity:1"
         x="17.204103"
         y="163.50247"
         id="text360-1"><tspan
           sodipodi:role="line"
           id="tspan358-2"
           style="font-style:normal;font-variant:normal;font-weight:normal;font-stretch:normal;font-family:'Air America';-inkscape-font-specification:'Air America';fill:#245cca;fill-opacity:1;stroke:none;stroke-width:3.90799;stroke-opacity:1"
           x="17.204103"
           y="163.50247">ZAP</tspan></text></g></g></svg>
