<?xml version="1.0" encoding="UTF-8"?>
<svg width="800" height="800" version="1.1" viewBox="0 0 211.67 211.67" xml:space="preserve" xmlns="http://www.w3.org/2000/svg"><rect x="33.375" y="35.244" width="143.14" height="142.13" fill="#fffffd" stop-color="#000000" stroke-linecap="round" stroke-linejoin="round" stroke-width=".2416"/><g transform="matrix(1.1023 0 0 1.1023 -57.283 24.171)" fill="#ea7819" stroke-width=".35278"><path d="m64.76 157-0.85524-0.97014 0.97014 0.85524c0.53358 0.47039 0.97014 0.90695 0.97014 0.97014 0 0.27667-0.28568 0.0515-1.085-0.85524zm166.19 0.0882c0.45571-0.48507 0.90792-0.88194 1.0049-0.88194 0.097 0-0.19646 0.39687-0.65216 0.88194s-0.90792 0.88194-1.0049 0.88194c-0.097 0 0.19645-0.39687 0.65215-0.88194zm-81.073-21.254c3.2375-0.0582 8.635-0.0583 11.994-2.3e-4 3.3594 0.058 0.7105 0.10562-5.8864 0.10575-6.597 1.3e-4 -9.3456-0.0474-6.108-0.10552zm-6.035-2.7641c0.0169-0.41096 0.10052-0.49456 0.21313-0.21313 0.10191 0.25466 0.0894 0.55893-0.0278 0.67615-0.11723 0.11723-0.20061-0.0911-0.18529-0.46302zm42.008-0.49977c0-0.48507 0.0801-0.6835 0.17794-0.44097 0.0979 0.24254 0.0979 0.63941 0 0.88195-0.0979 0.24253-0.17794 0.0441-0.17794-0.44098zm-18.372-1.6169c0.0169-0.41097 0.10052-0.49456 0.21313-0.21314 0.10191 0.25466 0.0894 0.55893-0.0278 0.67616-0.11723 0.11722-0.20061-0.0911-0.18529-0.46302zm42.008-1.2053c0-0.48507 0.0801-0.6835 0.17794-0.44097 0.0979 0.24253 0.0979 0.63941 0 0.88194-0.0979 0.24254-0.17794 0.0441-0.17794-0.44097zm-53.017-64.823c-0.43881-0.55953-0.42633-0.572 0.1332-0.13319 0.58764 0.46086 0.77452 0.75056 0.48417 0.75056-0.0733 0-0.35107-0.27781-0.61737-0.61736zm16.626-16.845c-0.85691-0.87312-1.4786-1.5875-1.3816-1.5875 0.097 0 0.8775 0.71438 1.7344 1.5875s1.4786 1.5875 1.3816 1.5875c-0.097 0-0.87749-0.71438-1.7344-1.5875zm-84.402-36.056c0.43656-0.08409 1.1509-0.08409 1.5875 0 0.43656 0.08408 0.07937 0.15288-0.79375 0.15288-0.87312 0-1.2303-0.0688-0.79375-0.15288zm-23.901-21.094c0.4557-0.48507 0.90792-0.88194 1.0049-0.88194 0.09701 0-0.19646 0.39688-0.65216 0.88194-0.4557 0.48507-0.90792 0.88194-1.0049 0.88194-0.09701 0 0.19646-0.39688 0.65215-0.88194zm166.13-0.088195-0.85524-0.97014 0.97014 0.85524c0.53358 0.47038 0.97014 0.90695 0.97014 0.97014 0 0.27667-0.28568 0.051497-1.085-0.85524z"/><path d="m143.89 134.68c0-0.6791 0.0726-0.95691 0.16134-0.61736 0.0887 0.33955 0.0887 0.89517 0 1.2347s-0.16134 0.0617-0.16134-0.61736zm41.988-0.17639c4e-3 -0.77611 0.0762-1.0521 0.16055-0.61325 0.0844 0.43883 0.0812 1.0738-7e-3 1.4111-0.0883 0.33728-0.15734-0.0218-0.15342-0.79787zm-95.013-3.616-0.85524-0.97014 0.97014 0.85524c0.90674 0.79936 1.1319 1.085 0.85524 1.085-0.06319 0-0.49975-0.43656-0.97014-0.97014zm23.283-23.283-0.85524-0.97014 0.97014 0.85524c0.90674 0.79936 1.1319 1.085 0.85524 1.085-0.0632 0-0.49975-0.43657-0.97014-0.97014zm-24.381-29.61c0.25466-0.10191 0.55893-0.08938 0.67616 0.02783 0.11722 0.11722-0.09113 0.2006-0.46302 0.18529-0.41097-0.01693-0.49456-0.10052-0.21314-0.21313zm85.581-27.717-0.67204-0.79375 0.79375 0.67204c0.74593 0.63155 0.95435 0.91546 0.67204 0.91546-0.067 0-0.42413-0.35719-0.79375-0.79375zm-4.5861-4.5861-0.67204-0.79375 0.79375 0.67204c0.43656 0.36962 0.79375 0.72681 0.79375 0.79375 0 0.28231-0.28391 0.07389-0.91546-0.67204zm-77.467-9.6778c0.25466-0.10191 0.55893-0.08938 0.67616 0.02783 0.11722 0.11722-0.09114 0.2006-0.46302 0.18529-0.41097-0.01693-0.49456-0.10052-0.21314-0.21313zm-2.1387-23.982c0.24254-0.09787 0.63941-0.09787 0.88194 0 0.24254 0.09786 0.0441 0.17794-0.44097 0.17794-0.48507 0-0.68351-0.08007-0.44097-0.17794z"/><path d="m102.1 135.84c0.43882-0.0844 1.0738-0.0812 1.4111 7e-3 0.33728 0.0883-0.0218 0.15734-0.79787 0.15343-0.77611-4e-3 -1.0521-0.0762-0.61324-0.16055zm107.36-8.0702c0.0169-0.41097 0.10052-0.49456 0.21314-0.21314 0.1019 0.25466 0.0894 0.55893-0.0278 0.67616-0.11722 0.11722-0.2006-0.0911-0.18528-0.46302zm-90.25-8.4373c4e-3 -0.77611 0.0762-1.0521 0.16055-0.61325 0.0844 0.43882 0.0812 1.0738-7e-3 1.4111-0.0883 0.33729-0.15734-0.0218-0.15342-0.79786zm-28.311-11.642c0.4557-0.48507 0.90792-0.88194 1.0049-0.88194 0.09701 0-0.19646 0.39687-0.65216 0.88194-0.4557 0.48507-0.90792 0.88195-1.0049 0.88195-0.09701 0 0.19646-0.39688 0.65216-0.88195zm37.185-11.553-0.67204-0.79375 0.79375 0.67204c0.74593 0.63155 0.95435 0.91546 0.67204 0.91546-0.0669 0-0.42413-0.35719-0.79375-0.79375zm-2.8222-2.8222-0.67203-0.79375 0.79375 0.67204c0.74592 0.63155 0.95434 0.91546 0.67203 0.91546-0.0669 0-0.42413-0.35719-0.79375-0.79375zm18.528-15.346-0.85524-0.97014 0.97014 0.85524c0.90674 0.79936 1.1319 1.085 0.85524 1.085-0.0632 0-0.49975-0.43656-0.97014-0.97014zm-55.448 0.03095c0.24254-0.09786 0.63941-0.09786 0.88194 0 0.24254 0.09786 0.0441 0.17794-0.44097 0.17794-0.48507 0-0.68351-0.08007-0.44097-0.17794zm71.304-9.5559c-0.43881-0.55953-0.42633-0.572 0.1332-0.1332 0.58764 0.46086 0.77452 0.75056 0.48417 0.75056-0.0733 0-0.35107-0.27781-0.61737-0.61736zm-72.715-14.448c0.43656-0.08409 1.1509-0.08409 1.5875 0 0.43656 0.08408 0.07937 0.15288-0.79375 0.15288-0.87312 0-1.2303-0.0688-0.79375-0.15288zm89.837-2.3087-0.67204-0.79375 0.79375 0.67204c0.43656 0.36962 0.79375 0.72681 0.79375 0.79375 0 0.28231-0.28391 0.07389-0.91546-0.67204zm-7.2434-7.2319c-0.43881-0.55953-0.42633-0.572 0.1332-0.13319 0.33955 0.26629 0.61736 0.54411 0.61736 0.61736 0 0.29035-0.2897 0.10347-0.75056-0.48417zm-77.279-8.4431c0.25466-0.10191 0.55893-0.08938 0.67616 0.02783 0.11723 0.11722-0.09113 0.2006-0.46302 0.18529-0.41097-0.01693-0.49456-0.10052-0.21314-0.21313zm0.35278-23.989c0.25466-0.10191 0.55893-0.08937 0.67616 0.02785 0.11722 0.11722-0.09114 0.2006-0.46302 0.18529-0.41097-0.01693-0.49456-0.10052-0.21314-0.21314z"/><path d="m78.935 163.91c-8.956-1.2946-16.936-7.9053-19.745-16.356-1.4766-4.4428-1.4922-5.2994-1.3749-75.489 0.10536-63.055 0.15252-67.528 0.73461-69.674 2.3791-8.7704 9.3299-15.657 18.055-17.889 2.3318-0.59644 6.314-0.63165 71.438-0.63165 65.124 0 69.106 0.03521 71.438 0.63165 8.8134 2.2543 15.811 9.2522 18.066 18.066 0.59644 2.3318 0.63165 6.314 0.63165 71.437 0 65.124-0.0352 69.106-0.63165 71.437-2.2317 8.7248-9.1184 15.675-17.889 18.055-2.1498 0.58325-6.5461 0.62576-70.379 0.68039-40.145 0.0344-69.012-0.0755-70.342-0.26775zm26.421-28.187c3.4741-0.55401 6.3954-2.0786 9.0285-4.7116 8.845-8.845 5.3383-23.357-6.6195-27.395-1.8442-0.62268-2.852-0.73119-5.7925-0.62363-3.2827 0.12008-3.7721 0.23509-6.2847 1.4769-3.5712 1.765-6.0819 4.2777-7.8518 7.8583-1.3432 2.7172-1.3535 2.7705-1.3535 6.9903 0 4.161 0.02732 4.3089 1.274 6.898 2.5639 5.3248 6.6919 8.5153 12.308 9.5128 2.2679 0.40284 2.731 0.40231 5.2917-6e-3zm62.33-4.4797c-1.1525-25.376-15.068-49.533-36.753-63.8-12.222-8.041-25.619-12.404-41.01-13.355l-3.616-0.22345v23.97l1.8521 0.17627c9.4558 0.89995 13.352 1.7238 19.477 4.1189 20.299 7.9367 34.986 28.288 36.078 49.995l0.19972 3.9688h23.992zm41.987-1.0583c-1.5786-43.701-27.838-84.593-67.185-104.62-16.635-8.4672-32.633-12.712-50.977-13.528l-5.2035-0.23123v23.994l4.6743 0.24497c36.386 1.9069 68.117 22.743 84.528 55.505 6.2104 12.398 10.281 28.864 10.281 41.584v2.9612h24.096z"/></g><g fill="#24c0ca" stroke-width="3.908" aria-label="ZAP"><path d="m82.738 57.243c0-5.6274-3.1264-8.4412-9.3791-8.4412h-33.139l-3.908 14.85h28.137l-48.928 78.472c-3.1264 5.0022-5.6274 9.0664-5.6274 14.225 0 6.2527 3.7516 9.5354 11.568 9.5354h33.139l3.908-14.85h-30.638l48.928-78.472c3.908-6.7217 5.9401-11.88 5.9401-15.319z"/><path d="m117.44 47.238c-12.505 0-20.634 5.4711-23.448 16.101l-14.694 54.868h-9.848l-3.908 14.85h9.6917l-8.7538 32.827h15.632l8.7538-32.827h16.101l-8.7538 32.827h15.632l24.855-93.009c4.5332-16.882-2.8137-25.636-21.259-25.636zm6.0964 24.229-12.505 46.739h-16.101l13.131-48.928c1.0942-4.3769 3.7516-6.5654 7.9722-6.5654 6.7217 0 9.0664 2.97 7.5033 8.7538z"/><path d="m182.47 48.802h-20.947l-14.538 54.242h-9.5354l-3.908 14.85h9.5354l-12.818 47.99h15.632l12.818-47.99h9.5354c14.85 0 23.76-5.6274 26.887-17.664l6.7217-25.48c4.6895-17.508-1.7195-25.949-19.383-25.949zm4.0643 25.011-5.4711 20.165c-1.7195 6.2527-5.1585 9.0664-10.786 9.0664h-7.6596l10.63-39.392h5.9401c6.878 0 9.2228 3.2827 7.347 10.161z"/></g><g fill="#245cca" stroke-width="3.908" aria-label="ZAP"><path d="m81.15 55.655c0-5.6274-3.1264-8.4412-9.3791-8.4412h-33.139l-3.9079 14.85h28.137l-48.928 78.472c-3.1264 5.0022-5.6274 9.0664-5.6274 14.225 0 6.2527 3.7516 9.5354 11.568 9.5354h33.139l3.908-14.85h-30.638l48.928-78.472c3.908-6.7217 5.9401-11.88 5.9401-15.319z"/><path d="m115.85 45.651c-12.505 0-20.634 5.4711-23.448 16.101l-14.694 54.868h-9.848l-3.908 14.85h9.6917l-8.7538 32.827h15.632l8.7538-32.827h16.101l-8.7538 32.827h15.632l24.855-93.009c4.5332-16.882-2.8137-25.636-21.259-25.636zm6.0964 24.229-12.505 46.739h-16.101l13.131-48.928c1.0942-4.3769 3.7516-6.5654 7.9722-6.5654 6.7217 0 9.0664 2.97 7.5033 8.7538z"/><path d="m180.88 47.214h-20.947l-14.538 54.242h-9.5354l-3.908 14.85h9.5354l-12.818 47.99h15.632l12.818-47.99h9.5354c14.85 0 23.76-5.6274 26.887-17.664l6.7217-25.48c4.6895-17.508-1.7195-25.949-19.383-25.949zm4.0643 25.011-5.4711 20.165c-1.7195 6.2527-5.1585 9.0664-10.786 9.0664h-7.6596l10.63-39.392h5.9401c6.878 0 9.2228 3.2827 7.347 10.161z"/></g></svg>
